<?xml version="1.0" encoding="UTF-8" standalone="no"?>
<!-- Created with Inkscape (http://www.inkscape.org/) -->

<svg
   xmlns:dc="http://purl.org/dc/elements/1.1/"
   xmlns:cc="http://creativecommons.org/ns#"
   xmlns:rdf="http://www.w3.org/1999/02/22-rdf-syntax-ns#"
   xmlns:svg="http://www.w3.org/2000/svg"
   xmlns="http://www.w3.org/2000/svg"
   xmlns:xlink="http://www.w3.org/1999/xlink"
   xmlns:sodipodi="http://sodipodi.sourceforge.net/DTD/sodipodi-0.dtd"
   xmlns:inkscape="http://www.inkscape.org/namespaces/inkscape"
   width="210mm"
   height="297mm"
   viewBox="0 0 210 297"
   version="1.1"
   id="svg2491"
   inkscape:version="0.92.4 (5da689c313, 2019-01-14)"
   sodipodi:docname="logo_motia_seul.svg">
  <defs
     id="defs2485">
    <linearGradient
       inkscape:collect="always"
       xlink:href="#linearGradient4871"
       id="linearGradient4873"
       gradientUnits="userSpaceOnUse"
       gradientTransform="matrix(0.20158735,0,0,0.20158735,418.95087,331.60573)"
       x1="-1542.699"
       y1="-854.88251"
       x2="-1542.699"
       y2="-658.88251" />
    <linearGradient
       inkscape:collect="always"
       id="linearGradient4871">
      <stop
         style="stop-color:#004586;stop-opacity:1"
         offset="0"
         id="stop4867" />
      <stop
         style="stop-color:#24a6d0;stop-opacity:1"
         offset="1"
         id="stop4869" />
    </linearGradient>
    <linearGradient
       inkscape:collect="always"
       xlink:href="#linearGradient8434"
       id="linearGradient3005"
       gradientUnits="userSpaceOnUse"
       gradientTransform="matrix(0.76190495,0,0,0.76190495,418.9504,331.60582)"
       x1="-420.57532"
       y1="-371.28073"
       x2="-420.13693"
       y2="-193.07774" />
    <linearGradient
       inkscape:collect="always"
       id="linearGradient8434">
      <stop
         style="stop-color:#80b3ff;stop-opacity:1;"
         offset="0"
         id="stop8430" />
      <stop
         style="stop-color:#80b3ff;stop-opacity:0;"
         offset="1"
         id="stop8432" />
    </linearGradient>
  </defs>
  <sodipodi:namedview
     id="base"
     pagecolor="#ffffff"
     bordercolor="#666666"
     borderopacity="1.0"
     inkscape:pageopacity="0.0"
     inkscape:pageshadow="2"
     inkscape:zoom="0.49497475"
     inkscape:cx="-31.590957"
     inkscape:cy="498.33478"
     inkscape:document-units="mm"
     inkscape:current-layer="layer1"
     showgrid="false"
     inkscape:window-width="1920"
     inkscape:window-height="974"
     inkscape:window-x="-11"
     inkscape:window-y="-11"
     inkscape:window-maximized="1" />
  <metadata
     id="metadata2488">
    <rdf:RDF>
      <cc:Work
         rdf:about="">
        <dc:format>image/svg+xml</dc:format>
        <dc:type
           rdf:resource="http://purl.org/dc/dcmitype/StillImage" />
        <dc:title></dc:title>
      </cc:Work>
    </rdf:RDF>
  </metadata>
  <g
     inkscape:label="Layer 1"
     inkscape:groupmode="layer"
     id="layer1">
    <path
       style="opacity:1;vector-effect:none;fill:none;fill-opacity:1;fill-rule:evenodd;stroke:#806600;stroke-width:0.39999998;stroke-linecap:butt;stroke-linejoin:miter;stroke-miterlimit:4;stroke-dasharray:none;stroke-dashoffset:0;stroke-opacity:1"
       id="path2941"
       sodipodi:type="arc"
       sodipodi:cx="105.83334"
       sodipodi:cy="147.32144"
       sodipodi:rx="91.923836"
       sodipodi:ry="91.923836"
       sodipodi:start="6.2732718"
       sodipodi:end="6.2730624"
       sodipodi:open="true"
       d="M 197.75266,146.41017 A 91.923836,91.923836 0 0 1 106.74943,239.24071 91.923836,91.923836 0 0 1 13.914121,148.24234 91.923836,91.923836 0 0 1 104.90763,55.402267 91.923836,91.923836 0 0 1 197.75247,146.39092" />
    <path
       style="opacity:0.62099998;fill:url(#linearGradient3005);fill-opacity:1;fill-rule:evenodd;stroke-width:0.26458332"
       d="m 104.90772,55.402193 a 91.92384,91.92384 0 0 0 -90.993469,92.839917 91.92384,91.92384 0 0 0 92.835379,90.9985 91.92384,91.92384 0 0 0 91.00322,-92.8305 v -0.0191 A 91.92384,91.92384 0 0 0 104.90811,55.402422 Z"
       id="path2943"
       inkscape:connector-curvature="0" />
    <path
       style="opacity:1;fill:url(#linearGradient4873);fill-opacity:1;fill-rule:evenodd;stroke:url(#meshgradient4694);stroke-width:0.26499999;stroke-miterlimit:4;stroke-dasharray:none"
       d="m 15.189603,162.19015 c 7.335698,44.75262 46.212963,77.50806 91.560487,77.05046 44.64595,-0.45052 82.48291,-32.99011 89.70432,-77.05046 z"
       id="path2945"
       inkscape:connector-curvature="0"
       sodipodi:nodetypes="cscc" />
    <path
       style="opacity:1;fill:#205674;fill-opacity:1;stroke:none;stroke-width:0.26458332px;stroke-linecap:butt;stroke-linejoin:miter;stroke-opacity:1"
       d="m 99.609436,167.76059 c -25.274218,-0.0244 -56.550797,0.79611 -82.81968,1.84769 0.6368,2.49608 1.378362,4.96435 2.222553,7.3981 7.971355,-0.48518 16.794367,-0.99665 26.800463,-1.52602 53.013349,-2.80495 90.000788,-1.70697 111.976638,-1.23794 2.18895,-1.25638 10.20678,-0.57074 11.36412,-2.784 -6.1053,0.35969 -14.70317,0.85851 -25.77243,-1.62256 -6.57684,-1.47405 -23.16747,-2.05523 -43.771664,-2.07527 z"
       id="path2951"
       inkscape:connector-curvature="0"
       sodipodi:nodetypes="sccscccs" />
    <path
       style="opacity:0.62099998;fill:#205674;fill-opacity:1;stroke:none;stroke-width:0.26458332px;stroke-linecap:butt;stroke-linejoin:miter;stroke-opacity:1"
       d="m 149.53227,202.85881 c -7.12602,0.0305 -0.31543,0.53661 27.74774,2.23634 a 91.92384,91.92384 0 0 0 1.42567,-1.91467 c -14.07505,-0.16556 -24.53318,-0.34133 -29.17341,-0.32167 z"
       id="path2953"
       inkscape:connector-curvature="0" />
    <path
       sodipodi:nodetypes="ccccccccccccccccccccccccccccccccsscccccscscsccccczcsaccccsccccscccccccscccccccccccccccc"
       inkscape:connector-curvature="0"
       id="path2963"
       d="m 68.291484,175.38969 c -1.475354,-0.41325 -4.104688,-1.0499 -5.842593,-1.41508 -1.738285,-0.36511 -3.161067,-0.79314 -3.161752,-0.95124 0,-0.64617 5.104458,-0.24815 8.153068,0.63528 1.751314,0.50743 4.038935,1.03939 5.083506,1.18186 2.622553,0.35787 3.287773,0.57478 3.032001,0.9888 -0.370439,0.59924 -4.431696,0.35338 -7.26423,-0.43962 z m 32.381956,0.52557 c -1.717185,-0.29608 -10.078559,-2.40023 -10.260502,-2.58195 -0.578058,-0.57813 2.382782,-0.6179 5.047849,-0.067 1.70781,0.35245 4.657143,0.91085 6.553983,1.24053 5.21509,0.90667 5.22126,0.90827 4.97494,1.30674 -0.22477,0.36335 -4.40976,0.43109 -6.31627,0.10202 z m 28.74141,-1.88572 c -4.16411,-1.14004 -5.15314,-1.28091 -7.56853,-1.07825 -3.04297,0.25555 -3.69014,-0.20403 -1.29684,-0.92106 2.40381,-0.72031 6.03863,-0.53318 9.42042,0.48487 3.95954,1.19193 8.65623,1.88351 10.58172,1.55818 1.86499,-0.31505 1.94872,0.051 0.18049,0.79001 -2.16945,0.90637 -5.98888,0.625 -11.31726,-0.83375 z m -31.232081,-2.98438 c -1.896915,-0.27543 -4.22522,-0.72404 -5.173563,-0.99695 -0.948496,-0.27284 -3.793756,-0.51017 -6.323126,-0.52739 -3.680764,-0.0259 -5.019279,0.12084 -6.706289,0.72975 -1.63482,0.59009 -3.053791,0.75764 -6.323125,0.74629 -3.901029,-0.0122 -4.581183,-0.13509 -9.120003,-1.6288 -5.747278,-1.89128 -8.024307,-2.03406 -13.187736,-0.82614 -3.737754,0.87452 -6.827735,1.07909 -7.415697,0.49113 -0.258058,-0.25799 0.535848,-0.54911 2.40602,-0.8816 1.535237,-0.27322 4.082438,-0.9056 5.6608,-1.40503 4.433298,-1.40343 6.828193,-1.24945 13.229643,0.8499 6.1312,2.0109 7.3824,2.05791 13.40884,0.504 4.705527,-1.21326 8.567621,-1.16213 15.267282,0.20145 7.011965,1.4275 9.535625,1.28823 15.718785,-0.86705 7.13075,-2.48541 10.43749,-2.48884 18.64077,-0.0183 4.91832,1.48076 8.74545,1.5008 13.69455,0.0716 3.34263,-0.96548 3.7472,-1.00327 6.15094,-0.57363 9.94347,1.77752 9.39078,1.73021 12.3584,1.05539 1.52099,-0.34598 2.85623,-0.53829 2.96724,-0.42736 0.11116,0.11079 -0.79497,0.65791 -2.01311,1.21562 -2.68853,1.23079 -6.3568,1.34499 -11.19909,0.34858 -3.08106,-0.63391 -3.20358,-0.63002 -6.32327,0.20365 -6.17303,1.64937 -9.83048,1.69341 -15.2525,0.1837 -8.77974,-2.44473 -12.47238,-2.31536 -20.40625,0.71527 -3.29585,1.25898 -5.74766,1.46309 -10.059511,0.83696 z m -2.682744,-5.08594 c -0.421409,-0.0947 -2.813486,-0.67878 -5.31543,-1.29677 -4.651813,-1.26217 -4.964727,-1.34301 -10.010365,-0.74331 -5.045639,0.59977 -8.966098,2.25798 -13.228576,1.0736 -3.049448,-0.94072 -5.180573,-3.28671 -9.969373,-12.80343 -3.346211,-6.65037 -4.054706,-9.75589 -7.921984,-13.0746 -3.103619,-2.66369 -11.049069,-3.86971 -11.33745,-4.69272 -0.333332,-1.27467 0.648305,-1.67093 3.538973,-1.42865 3.318781,0.27833 6.853639,1.32526 13.393451,3.96724 11.354289,4.5869 21.096919,7.66774 31.462103,9.94865 4.535088,0.9981 4.876422,1.13981 6.40907,2.6621 1.789257,1.77683 3.506439,2.70849 6.398173,3.47131 3.277943,0.86469 13.800993,1.76511 18.978143,1.62362 4.60739,-0.0404 7.29356,-0.69661 9.09303,-4.54773 l 1.0051,-2.18995 5.4045,-0.25219 c 13.41006,-0.62583 28.90256,-1.85219 30.33318,-2.40106 0.8506,-0.3264 0.66499,0.57295 -0.49843,2.41516 -4.64465,6.9891 -8.09281,10.56808 -12.74561,16.23139 l -3.54308,0.0107 c -2.08839,0 -4.32945,0.24587 -5.45898,0.59307 -2.27924,0.70064 -7.87619,1.16937 -8.87482,0.74346 -0.57958,-0.24731 -0.43161,-0.38865 0.8272,-0.79146 1.44366,-0.46179 1.27993,-0.49204 -2.81897,-0.51978 -2.63245,-0.0183 -5.27611,-0.26902 -6.69227,-0.63596 -1.78621,-0.46278 -3.34278,-0.55139 -6.57021,-0.37356 -2.32594,0.12815 -6.68655,0.32754 -9.69006,0.4432 -5.39642,0.2077 -7.34865,0.77135 -3.44891,0.99581 4.55345,0.26232 0.49828,1.78682 -4.694327,1.76503 -1.791772,-0.0107 -3.602287,-0.0915 -4.023773,-0.18667 z m 9.851815,-13.90355 c -0.38629,-0.38629 -0.33059,-13.8653 0.061,-14.48336 0.18362,-0.28952 0.80198,-0.45501 1.43131,-0.38316 l 1.10812,0.12633 v 9.03741 5.74834 l -1.16351,0.11406 c -0.63984,0.0632 -1.28655,-0.0107 -1.43718,-0.15962 z"
       style="fill:#10223c;fill-opacity:1;stroke-width:1" />
    <path
       sodipodi:nodetypes="csccccccccscccc"
       inkscape:connector-curvature="0"
       id="path2965"
       d="m 55.089955,123.34488 c 0,0 0.25623,-2.3152 0.737068,-4.88404 0.404191,-2.15946 0.07467,-3.3616 0.356572,-6.19543 1.327466,-3.5568 3.892648,-7.63566 3.822247,-7.63749 l 0.718706,2.27589 0.268572,-4.30941 C 66.096588,94.714864 72.727371,89.575654 79.834038,85.290174 l -5.004572,12.15436 -5.358783,2.993066 4.550401,-1.153136 c 0,0 -2.608458,6.124646 -5.326402,8.225976 -1.435198,1.10956 -3.409142,2.65509 -3.409142,2.65509 l 3.015239,-1.29616 c -2.594744,3.82233 -6.675049,7.44648 -10.65448,11.08397 z"
       style="fill:#10223c;fill-opacity:1;stroke:none;stroke-width:0.26458338px;stroke-linecap:butt;stroke-linejoin:miter;stroke-opacity:1" />
    <path
       inkscape:connector-curvature="0"
       id="path2971"
       d="m 51.29567,125.02816 c -0.441906,0.0236 -0.88061,0.0767 -1.315049,0.15657 0.434209,-0.0784 0.873371,-0.1331 1.315049,-0.15604 z m -1.588343,0.21143 c -0.415163,0.0881 -0.825677,0.19611 -1.22781,0.3344 0.402133,-0.13829 0.812647,-0.24701 1.22781,-0.3344 z m 4.762362,0.11573 v 0 c 0.3472,0.0926 0.688153,0.20145 1.0208,0.32777 -0.332875,-0.12647 -0.6736,-0.23649 -1.021334,-0.32884 z m 1.514743,0.53166 c 0.324343,0.14301 0.639849,0.30179 0.946058,0.47619 -0.306209,-0.17448 -0.621715,-0.33311 -0.946058,-0.47619 z m 0.946667,0.47672 c 0.306058,0.17455 0.60221,0.3645 0.888077,0.56861 -0.285563,-0.20411 -0.582323,-0.39406 -0.888077,-0.56861 z m -11.927545,2.13692 c -0.143086,0.25988 -0.280839,0.51139 -0.424382,0.77623 0.141257,-0.26202 0.282973,-0.51894 0.424382,-0.77623 z m 4.233524,1.79428 a 12.628175,11.344541 15.115637 0 0 -6.048915,1.59825 c -0.07931,0.15208 -0.142552,0.27604 -0.210973,0.4093 2.883582,0.46712 6.240917,1.55923 11.672156,3.75352 2.131733,0.86103 4.206325,1.66903 6.238858,2.42865 0.04495,-0.56869 0.08861,-1.11741 0.141258,-1.87413 a 12.628175,11.344541 15.115637 0 0 -8.052955,-5.87147 12.628175,11.344541 15.115637 0 0 -3.73882,-0.44412 z m 12.033604,1.42804 c 0,0.2448 -0.01143,0.48472 -0.01752,0.73768 0.01143,-0.25356 0.01143,-0.49311 0.01752,-0.73768 z m -0.04343,1.39703 c -0.01143,0.22842 -0.01752,0.4544 -0.02743,0.68533 0.01143,-0.23116 0.01752,-0.45691 0.02743,-0.68533 z m -0.05714,1.21547 c -0.01752,0.29447 -0.032,0.5891 -0.05105,0.88221 0.01752,-0.29395 0.03352,-0.58697 0.05105,-0.88221 z m -0.06324,1.08388 c -0.02514,0.37981 -0.04724,0.75688 -0.07467,1.12572 0.02514,-0.37174 0.05257,-0.74164 0.07467,-1.12572 z"
       style="opacity:1;fill:#10223c;fill-opacity:1;fill-rule:nonzero;stroke:none;stroke-width:0.26458332;stroke-linecap:round;stroke-linejoin:round;stroke-miterlimit:4;stroke-dasharray:none;stroke-dashoffset:0;stroke-opacity:1;paint-order:fill markers stroke" />
    <path
       style="opacity:1;fill:#10223c;fill-opacity:1;fill-rule:nonzero;stroke:none;stroke-width:0.26458332;stroke-linecap:round;stroke-linejoin:round;stroke-miterlimit:4;stroke-dasharray:none;stroke-dashoffset:0;stroke-opacity:1;paint-order:fill markers stroke"
       d="m 55.484089,121.68507 c -2.935771,-0.81074 -5.895468,-1.53219 -6.14103,-1.40297 -0.204571,0.10773 -1.586819,2.43345 -3.1216,5.1328 2.491657,-1.75299 5.631163,-2.31444 8.57562,-1.53341 3.04404,0.80793 5.551774,2.96282 6.808764,5.85059 0.02438,-3.14293 0,-5.89364 -0.127391,-6.09318 -0.147046,-0.23779 -3.058286,-1.14187 -5.993905,-1.95383 z"
       id="path2973"
       inkscape:connector-curvature="0"
       sodipodi:nodetypes="cccccccc" />
    <path
       style="opacity:1;fill:#10223c;fill-opacity:1;fill-rule:nonzero;stroke:none;stroke-width:0.26458332;stroke-linecap:round;stroke-linejoin:round;stroke-miterlimit:4;stroke-dasharray:none;stroke-dashoffset:0;stroke-opacity:1;paint-order:fill markers stroke"
       d="m 49.157306,121.07578 c -0.01295,0.0107 -0.02057,0.0236 -0.02819,0.0343 0.01448,-0.0107 0.02057,-0.0259 0.02819,-0.0343 z m 12.218518,3.37737 c 0.01143,0.0183 0.01143,0.0404 0.01296,0.0655 -0.01143,-0.0244 -0.01296,-0.0465 -0.01296,-0.0655 z m -12.303469,-3.27231 c -0.02819,0.0381 -0.06933,0.1 -0.105372,0.15017 0.03352,-0.0518 0.07543,-0.11207 0.105372,-0.15017 z m 12.356194,3.84366 c 0.03886,0.64031 0.05029,1.71657 0.05714,2.99787 -0.01067,-1.27269 -0.02057,-2.36663 -0.05714,-2.99787 z m -6.757411,-0.40587 c -0.920305,-0.24434 -1.858668,-0.35695 -2.791011,-0.34346 -0.128381,0 -0.256381,0.0107 -0.384381,0.0129 v 0 c -1.9184,0.0989 -3.793296,0.73387 -5.398935,1.86362 -0.873601,1.53661 -1.849982,3.35977 -2.708725,5.00008 a 12.628176,11.344541 15.115637 0 1 9.787812,-1.15414 12.628176,11.344541 15.115637 0 1 8.053717,5.8717 c 0.124115,-1.77272 0.237639,-3.72952 0.2512,-5.39947 -1.256839,-2.88777 -3.765334,-5.04343 -6.809373,-5.85128 z m -7.633299,-0.10415 c -0.294019,0.50705 -0.58598,1.01463 -0.903847,1.5728 0.312533,-0.54986 0.613561,-1.07116 0.903847,-1.5728 z"
       id="path2975"
       inkscape:connector-curvature="0" />
    <path
       style="fill:#10223c;fill-opacity:1;stroke-width:0.99999982"
       d="m 61.112738,141.03647 c 0,-0.76153 4.576459,-12.57547 10.169755,-26.25304 l 10.169679,-29.956956 9.376081,-3.05653 c 5.313601,-1.47025 8.476345,-2.51444 11.540347,-1.20092 3.43025,1.70774 3.98705,1.70774 6.98994,0 1.76138,-0.48411 14.84252,-2.3203 25.53586,1.16557 l 9.26766,3.02118 10.46133,30.817826 c 4.91017,14.46523 10.11315,26.06386 9.68838,26.47292 -29.8077,-4.34118 -61.33791,-15.53889 -103.199032,-1.00975 z"
       id="path2977"
       inkscape:connector-curvature="0"
       sodipodi:nodetypes="scccccccsccs" />
    <g
       transform="matrix(0.76190495,0,0,0.76190495,3977.6331,-681.85494)"
       id="g5093"
       style="stroke-width:1.31249964">
      <path
         style="fill:#ffffff;fill-opacity:1;stroke:none;stroke-width:0.34726557px;stroke-linecap:butt;stroke-linejoin:miter;stroke-opacity:1"
         d="m -5145.9067,1050.8797 c 5.9806,-16.9463 15.4736,-29.4668 24.9022,-38.1494 -9.1731,11.2096 -18.008,22.8875 -24.9022,38.1494 z"
         id="path2967"
         inkscape:connector-curvature="0"
         sodipodi:nodetypes="ccc" />
      <path
         sodipodi:nodetypes="csc"
         inkscape:connector-curvature="0"
         id="path2979"
         d="m -5081.3669,1006.3112 c 0,0 1.3579,77.4006 -0.061,53.8103 -1.4091,-23.421 0.061,-53.8103 0.061,-53.8103 z"
         style="fill:#ffffff;fill-opacity:1;stroke:none;stroke-width:0.34726551px;stroke-linecap:butt;stroke-linejoin:miter;stroke-opacity:1" />
      <path
         inkscape:connector-curvature="0"
         d="m -5071.8305,1055.6315 c -0.4696,0.2715 -0.9376,0.5471 -1.4092,0.8144 -0.075,0.041 0.1434,-0.095 0.2165,-0.1382 0.6221,-0.3612 1.2442,-0.7226 1.8699,-1.0739 0.3917,-0.2196 0.8119,-0.3724 1.2196,-0.5403 0.9714,-0.4168 1.942,-0.8256 2.9403,-1.1411 1.128,-0.3352 2.2783,-0.5219 3.4353,-0.6311 0.9275,-0.073 1.8573,-0.073 2.7868,-0.073 1.0713,-0.052 2.1318,0.099 3.1914,0.2623 1.485,0.2262 2.9623,0.5229 4.4327,0.8581 1.6934,0.3453 3.3633,0.8245 5.0398,1.27 1.7441,0.4516 3.4772,0.9582 5.2215,1.4119 1.8094,0.4517 3.6105,0.9518 5.421,1.3996 1.6407,0.4222 3.288,0.7998 4.9257,1.2356 1.6731,0.4793 3.3551,0.9022 5.0566,1.2047 1.76,0.2798 3.5249,0.521 5.2948,0.691 1.5375,0.1187 3.0755,0.2242 4.6152,0.2902 0,0 -1.3884,1.044 -1.3884,1.044 v 0 c -1.5189,-0.1049 -3.0369,-0.2282 -4.5555,-0.342 -1.7869,-0.1547 -3.5692,-0.3621 -5.3421,-0.6725 -1.703,-0.3186 -3.3874,-0.746 -5.0664,-1.2128 -1.6335,-0.4323 -3.2769,-0.8121 -4.9106,-1.2438 -1.8073,-0.4614 -3.6085,-0.9557 -5.4177,-1.4036 -1.7472,-0.4512 -3.4834,-0.9583 -5.2312,-1.4064 -1.6769,-0.4482 -3.3509,-0.9173 -5.0463,-1.2579 -1.4818,-0.3337 -2.9718,-0.6047 -4.4696,-0.8158 -1.0669,-0.1494 -2.1344,-0.2746 -3.2101,-0.219 -0.9231,0 -1.8466,0 -2.768,0.076 -1.1529,0.109 -2.3015,0.2987 -3.4199,0.6635 -0.9981,0.325 -1.9684,0.7429 -2.9417,1.1603 -0.3461,0.1473 -0.5212,0.2163 -0.8606,0.381 -0.1256,0.061 -0.4912,0.2663 -0.3719,0.1908 0.4034,-0.2549 0.8147,-0.4918 1.2253,-0.7303 0.07,-0.042 -0.1353,0.091 -0.2045,0.138 -0.5823,0.3423 -1.1644,0.6845 -1.7462,1.0268 0,0 1.4675,-1.2169 1.4675,-1.2169 z"
         id="path2981"
         style="opacity:1;fill:#ffffff;fill-opacity:1;fill-rule:nonzero;stroke:none;stroke-width:0.34726548;stroke-linecap:round;stroke-linejoin:round;stroke-miterlimit:4;stroke-dasharray:none;stroke-dashoffset:0;stroke-opacity:1;paint-order:fill markers stroke" />
      <path
         style="opacity:1;fill:#ffffff;fill-opacity:1;fill-rule:nonzero;stroke:none;stroke-width:0.34726548;stroke-linecap:round;stroke-linejoin:round;stroke-miterlimit:4;stroke-dasharray:none;stroke-dashoffset:0;stroke-opacity:1;paint-order:fill markers stroke"
         id="path2983"
         d="m -5071.9051,1045.5448 c -0.4456,0.2715 -0.8899,0.5473 -1.3377,0.8145 -0.07,0.043 0.1367,-0.095 0.2056,-0.1382 0.5905,-0.3613 1.181,-0.7226 1.7751,-1.0739 0.3718,-0.2196 0.7707,-0.3725 1.1578,-0.5404 0.922,-0.4168 1.8431,-0.8256 2.7909,-1.1411 1.0705,-0.3352 2.1626,-0.5219 3.2609,-0.6311 0.8804,-0.073 1.7632,-0.073 2.6453,-0.073 1.0169,-0.052 2.0234,0.099 3.0293,0.2624 1.4098,0.2261 2.8119,0.5229 4.2078,0.8582 1.6074,0.3452 3.1924,0.8243 4.7838,1.2699 1.6555,0.4516 3.3008,0.9581 4.9566,1.4118 1.7173,0.4517 3.4271,0.9519 5.1457,1.3997 1.5572,0.4221 3.121,0.7997 4.6755,1.2355 1.5882,0.4793 3.1849,0.9022 4.8,1.2047 1.6707,0.2799 3.3459,0.521 5.0259,0.691 1.4594,0.1187 2.9193,0.2242 4.381,0.2902 0,0 -1.318,1.044 -1.318,1.044 v 0 c -1.4419,-0.1049 -2.8829,-0.228 -4.3242,-0.3419 -1.6961,-0.1548 -3.3881,-0.3622 -5.0711,-0.6725 -1.6163,-0.3187 -3.2152,-0.7461 -4.8091,-1.2129 -1.5504,-0.4323 -3.1102,-0.8121 -4.6611,-1.2438 -1.7156,-0.4614 -3.4255,-0.9557 -5.1427,-1.4036 -1.6585,-0.4512 -3.3066,-0.9583 -4.9657,-1.4064 -1.5918,-0.4482 -3.1805,-0.9172 -4.79,-1.2579 -1.4067,-0.3337 -2.8209,-0.6047 -4.2425,-0.8158 -1.013,-0.1494 -2.0262,-0.2745 -3.0474,-0.219 -0.8762,0.014 -1.7529,0 -2.6276,0.076 -1.0944,0.109 -2.1845,0.2987 -3.2461,0.6635 -0.9474,0.3249 -1.8685,0.7429 -2.7924,1.1603 -0.3285,0.1471 -0.4947,0.2162 -0.8171,0.381 -0.1201,0.061 -0.4661,0.2663 -0.3529,0.1908 0.383,-0.255 0.7735,-0.4918 1.1631,-0.7303 0.068,-0.041 -0.1298,0.091 -0.1941,0.138 -0.5528,0.3423 -1.1054,0.6845 -1.6575,1.0268 0,0 1.3929,-1.2169 1.3929,-1.2169 z"
         inkscape:connector-curvature="0" />
      <path
         inkscape:connector-curvature="0"
         d="m -5071.9854,1035.6383 c -0.4201,0.2715 -0.8385,0.5472 -1.2607,0.8145 -0.068,0.041 0.1271,-0.095 0.1939,-0.1382 0.5565,-0.3613 1.113,-0.7226 1.673,-1.074 0.3503,-0.2195 0.7259,-0.3725 1.091,-0.5403 0.8685,-0.4168 1.7371,-0.8255 2.6299,-1.1411 1.0091,-0.3352 2.0384,-0.5219 3.0732,-0.631 0.8297,-0.073 1.6617,-0.073 2.4928,-0.073 0.9586,-0.053 1.9071,0.099 2.8551,0.2621 1.3285,0.2262 2.65,0.5229 3.9652,0.8581 1.5149,0.3454 3.0088,0.8245 4.5085,1.27 1.5601,0.4516 3.1106,0.9582 4.6708,1.412 1.6185,0.4516 3.2298,0.9518 4.8495,1.3995 1.4676,0.4222 2.9412,0.7998 4.4065,1.2356 1.4963,0.4793 3.0012,0.9022 4.523,1.2047 1.5748,0.2798 3.1534,0.521 4.7368,0.691 1.3753,0.1187 2.7511,0.2242 4.1288,0.2902 0,0 -1.2423,1.044 -1.2423,1.044 v 0 c -1.3587,-0.1049 -2.7168,-0.2281 -4.0752,-0.342 -1.5985,-0.1547 -3.193,-0.3621 -4.779,-0.6725 -1.5233,-0.3186 -3.0299,-0.7461 -4.532,-1.2128 -1.4614,-0.4323 -2.9311,-0.8121 -4.3928,-1.2438 -1.6168,-0.4614 -3.2279,-0.9557 -4.8462,-1.4036 -1.5632,-0.4512 -3.1164,-0.9583 -4.6799,-1.4064 -1.5001,-0.4482 -2.9976,-0.9172 -4.5142,-1.2579 -1.3256,-0.3337 -2.6583,-0.6047 -3.9983,-0.8158 -0.9545,-0.1494 -1.9092,-0.2745 -2.8714,-0.219 -0.8261,0.014 -1.6522,0 -2.4765,0.077 -1.0314,0.1091 -2.0586,0.2988 -3.059,0.6636 -0.8929,0.3248 -1.761,0.7429 -2.6318,1.1602 -0.3095,0.1473 -0.4663,0.2162 -0.7697,0.3811 -0.1132,0.061 -0.4395,0.2663 -0.3327,0.1908 0.3608,-0.255 0.7288,-0.4918 1.0962,-0.7304 0.065,-0.041 -0.1228,0.091 -0.183,0.1381 -0.521,0.3423 -1.0416,0.6845 -1.5621,1.0268 0,0 1.3126,-1.2169 1.3126,-1.2169 z"
         id="path2985"
         style="opacity:1;fill:#ffffff;fill-opacity:1;fill-rule:nonzero;stroke:none;stroke-width:0.34726548;stroke-linecap:round;stroke-linejoin:round;stroke-miterlimit:4;stroke-dasharray:none;stroke-dashoffset:0;stroke-opacity:1;paint-order:fill markers stroke" />
      <path
         style="opacity:1;fill:#ffffff;fill-opacity:1;fill-rule:nonzero;stroke:none;stroke-width:0.34726548;stroke-linecap:round;stroke-linejoin:round;stroke-miterlimit:4;stroke-dasharray:none;stroke-dashoffset:0;stroke-opacity:1;paint-order:fill markers stroke"
         id="path2987"
         d="m -5072.1628,1016.0054 c -0.3634,0.2716 -0.7253,0.5473 -1.0902,0.8144 -0.057,0.043 0.1105,-0.095 0.1676,-0.1382 0.481,-0.3611 0.9625,-0.7226 1.4464,-1.0738 0.303,-0.2197 0.6279,-0.3725 0.9434,-0.5404 0.7513,-0.4168 1.5021,-0.8256 2.274,-1.1411 0.8727,-0.3353 1.7626,-0.5219 2.6574,-0.6311 0.7174,-0.073 1.4367,-0.073 2.1554,-0.073 0.8287,-0.053 1.6489,0.099 2.4689,0.2621 1.1484,0.2263 2.291,0.523 3.4285,0.8582 1.3099,0.3453 2.6015,0.8245 3.8981,1.2699 1.3492,0.4518 2.6896,0.9583 4.0391,1.412 1.3995,0.4517 2.7925,0.9518 4.193,1.3997 1.2688,0.4222 2.5433,0.7998 3.8101,1.2355 1.2938,0.4793 2.5948,0.9022 3.9111,1.2047 1.3615,0.2799 2.7264,0.5211 4.0955,0.691 1.1892,0.1188 2.3789,0.2241 3.5698,0.2902 0,0 -1.0738,1.0441 -1.0738,1.0441 v 0 c -1.1751,-0.105 -2.3493,-0.2283 -3.5238,-0.342 -1.3821,-0.1548 -2.7607,-0.3622 -4.1322,-0.6725 -1.3174,-0.3187 -2.62,-0.7463 -3.9187,-1.2129 -1.2636,-0.4323 -2.5346,-0.8121 -3.7981,-1.2438 -1.3981,-0.4614 -2.7914,-0.9558 -4.1908,-1.4035 -1.3516,-0.4512 -2.6944,-0.9583 -4.0463,-1.4065 -1.2972,-0.4481 -2.592,-0.9173 -3.9033,-1.2579 -1.1462,-0.3338 -2.2986,-0.6047 -3.4571,-0.8158 -0.8253,-0.1494 -1.6511,-0.2746 -2.4832,-0.2189 -0.7139,0.014 -1.4282,0 -2.1409,0.077 -0.892,0.109 -1.7802,0.2987 -2.6453,0.6635 -0.7719,0.3249 -1.5225,0.7429 -2.2754,1.1603 -0.2677,0.1471 -0.4033,0.2162 -0.6657,0.381 -0.097,0.061 -0.38,0.2663 -0.2877,0.1908 0.312,-0.255 0.6304,-0.4919 0.9478,-0.7303 0.055,-0.041 -0.1063,0.091 -0.158,0.138 -0.4506,0.3423 -0.9006,0.6845 -1.3506,1.0268 0,0 1.1351,-1.2169 1.1351,-1.2169 z"
         inkscape:connector-curvature="0" />
      <path
         inkscape:connector-curvature="0"
         d="m -5072.0684,1025.7317 c -0.3935,0.2716 -0.7854,0.5473 -1.1808,0.8146 -0.064,0.043 0.1201,-0.095 0.1815,-0.1382 0.5213,-0.3613 1.0425,-0.7226 1.5669,-1.074 0.328,-0.2195 0.6802,-0.3725 1.0219,-0.5404 0.8142,-0.4168 1.6272,-0.8254 2.4637,-1.141 0.9452,-0.3353 1.9092,-0.5219 2.8786,-0.631 0.777,-0.073 1.5564,-0.073 2.3352,-0.073 0.8977,-0.052 1.786,0.1 2.6743,0.2622 1.2441,0.2262 2.4819,0.5229 3.7143,0.8582 1.4188,0.3452 2.818,0.8244 4.2229,1.2699 1.4614,0.4516 2.9136,0.9582 4.3752,1.412 1.5162,0.4516 3.0253,0.9518 4.5425,1.3995 1.3747,0.4222 2.755,0.7998 4.1274,1.2355 1.4018,0.4794 2.8113,0.9023 4.2371,1.2048 1.4748,0.2798 2.9536,0.521 4.4365,0.691 1.2882,0.1187 2.5772,0.2242 3.8674,0.2902 0,0 -1.1635,1.044 -1.1635,1.044 v 0 c -1.2729,-0.1049 -2.5449,-0.2281 -3.8171,-0.3418 -1.4973,-0.1548 -2.9907,-0.3623 -4.4767,-0.6727 -1.4267,-0.3186 -2.838,-0.7461 -4.245,-1.2129 -1.3687,-0.4322 -2.7458,-0.812 -4.1146,-1.2438 -1.5144,-0.4614 -3.024,-0.9556 -4.5397,-1.4035 -1.4643,-0.4512 -2.919,-0.9583 -4.3836,-1.4064 -1.405,-0.4482 -2.8076,-0.9172 -4.2284,-1.2579 -1.2415,-0.3337 -2.4901,-0.6047 -3.7451,-0.8158 -0.8941,-0.1494 -1.7886,-0.2745 -2.6897,-0.219 -0.7737,0 -1.5476,0 -2.3196,0.076 -0.9662,0.1091 -1.9286,0.2988 -2.8658,0.6636 -0.8362,0.325 -1.6491,0.7429 -2.4648,1.1602 -0.2901,0.1473 -0.437,0.2164 -0.7212,0.3811 -0.1077,0.061 -0.4116,0.2663 -0.3114,0.1908 0.3377,-0.2549 0.6826,-0.4918 1.0267,-0.7304 0.059,-0.041 -0.116,0.091 -0.1714,0.1381 -0.4881,0.3423 -0.9758,0.6845 -1.4633,1.0268 0,0 1.2296,-1.2169 1.2296,-1.2169 z"
         id="path2989"
         style="opacity:1;fill:#ffffff;fill-opacity:1;fill-rule:nonzero;stroke:none;stroke-width:0.34726548;stroke-linecap:round;stroke-linejoin:round;stroke-miterlimit:4;stroke-dasharray:none;stroke-dashoffset:0;stroke-opacity:1;paint-order:fill markers stroke" />
      <path
         sodipodi:nodetypes="ccccccccccccccccccccccccccccccccc"
         inkscape:connector-curvature="0"
         d="m -5088.7575,1055.8775 c 0.2912,0.2433 0.5817,0.4901 0.8739,0.7297 0.047,0.037 -0.087,-0.086 -0.1353,-0.1243 -0.3852,-0.3238 -0.7713,-0.6474 -1.159,-0.962 -0.2428,-0.1968 -0.5034,-0.3337 -0.756,-0.4841 -0.6024,-0.3733 -1.2038,-0.7394 -1.8226,-1.022 -0.6994,-0.3003 -1.4126,-0.4675 -2.1297,-0.5653 -0.5751,-0.065 -1.1515,-0.066 -1.7275,-0.065 -0.6642,-0.047 -1.3214,0.09 -1.9785,0.2349 -0.9205,0.2027 -1.8361,0.4684 -2.7479,0.7687 -1.0498,0.3093 -2.0849,0.7385 -3.1241,1.1375 -1.0813,0.4045 -2.1555,0.8583 -3.237,1.2647 -4.2277,1.5033 -8.5105,3.4343 -12.8309,4.0584 -5.6011,0.7267 -10.4625,0.7856 -11.4172,0.8447 l 0.8609,0.9352 v 0 c 0.9418,-0.095 4.6838,0.037 11.38,-0.891 3.5099,-0.4792 6.498,-1.6633 9.4964,-2.803 1.1203,-0.4133 2.2372,-0.8561 3.3585,-1.2572 1.0833,-0.4041 2.1596,-0.8584 3.243,-1.2598 1.0399,-0.4015 2.0773,-0.8216 3.1282,-1.1267 0.9188,-0.2989 1.8422,-0.5416 2.7706,-0.7308 0.6616,-0.1339 1.3232,-0.2458 1.9899,-0.196 0.5724,0 1.1448,0 1.716,0.069 0.715,0.098 1.427,0.2674 2.1202,0.5942 0.6185,0.2911 1.2199,0.6655 1.8237,1.0394 0.2141,0.1311 0.323,0.1937 0.5334,0.3413 0.077,0.054 0.3045,0.2385 0.2305,0.1709 -0.2502,-0.2284 -0.5051,-0.4406 -0.7595,-0.6542 -0.044,-0.036 0.083,0.082 0.1256,0.1229 0.3611,0.3065 0.7218,0.6132 1.0826,0.9197 l -0.9097,-1.09 z"
         id="path2991"
         style="opacity:1;fill:#ffffff;fill-opacity:1;fill-rule:nonzero;stroke:none;stroke-width:0.34726548;stroke-linecap:round;stroke-linejoin:round;stroke-miterlimit:4;stroke-dasharray:none;stroke-dashoffset:0;stroke-opacity:1;paint-order:fill markers stroke" />
      <path
         style="opacity:1;fill:#ffffff;fill-opacity:1;fill-rule:nonzero;stroke:none;stroke-width:0.34726548;stroke-linecap:round;stroke-linejoin:round;stroke-miterlimit:4;stroke-dasharray:none;stroke-dashoffset:0;stroke-opacity:1;paint-order:fill markers stroke"
         id="path2993"
         d="m -5088.6564,1046.4906 c 0.2587,0.2433 0.5167,0.4903 0.7768,0.7297 0.043,0.037 -0.077,-0.086 -0.1201,-0.1243 -0.3424,-0.3236 -0.6853,-0.6473 -1.0302,-0.962 -0.2158,-0.1967 -0.4473,-0.3337 -0.6721,-0.484 -0.5352,-0.3733 -1.07,-0.7395 -1.6201,-1.0221 -0.6216,-0.3003 -1.2556,-0.4675 -1.893,-0.5652 -0.5114,-0.065 -1.0236,-0.066 -1.5357,-0.065 -0.5903,-0.047 -1.1745,0.09 -1.7586,0.2348 -0.8182,0.2027 -1.6325,0.4685 -2.4427,0.7688 -0.9332,0.3092 -1.8534,0.7385 -2.777,1.1375 -0.9612,0.4045 -1.9163,0.8583 -2.8774,1.2646 -3.7583,1.5035 -7.5654,3.4343 -11.4056,4.0585 -4.9791,0.7266 -9.3005,0.7856 -10.1491,0.8448 l 0.7652,0.9351 v 0 c 0.8373,-0.095 4.1636,0.037 10.1159,-0.8911 3.12,-0.4792 5.7763,-1.6632 8.4414,-2.8029 0.996,-0.4134 1.9887,-0.8561 2.9856,-1.2573 0.9629,-0.404 1.9196,-0.8584 2.8826,-1.2597 0.9243,-0.4015 1.8465,-0.8216 2.7809,-1.1267 0.8167,-0.299 1.6375,-0.5417 2.4629,-0.7308 0.5881,-0.1339 1.1761,-0.2459 1.7688,-0.1961 0.5088,0.014 1.0177,0 1.5253,0.069 0.6357,0.098 1.2684,0.2675 1.8847,0.5942 0.5499,0.291 1.0846,0.6655 1.621,1.0393 0.1907,0.1312 0.2872,0.1937 0.4744,0.3413 0.069,0.054 0.2706,0.2386 0.2049,0.1709 -0.2226,-0.2283 -0.4489,-0.4405 -0.6753,-0.6541 -0.04,-0.036 0.075,0.082 0.1132,0.1229 0.321,0.3065 0.6416,0.6131 0.9623,0.9196 l -0.8086,-1.09 z"
         inkscape:connector-curvature="0"
         sodipodi:nodetypes="ccccccccccccccccccccccccccccccccc" />
      <path
         sodipodi:nodetypes="ccccccccccccccccccccccccccccccccc"
         inkscape:connector-curvature="0"
         d="m -5088.5623,1037.2577 c 0.2288,0.2432 0.4567,0.4902 0.6865,0.7296 0.037,0.037 -0.069,-0.086 -0.1063,-0.1243 -0.3025,-0.3236 -0.6057,-0.6472 -0.9103,-0.9619 -0.1909,-0.1967 -0.3954,-0.3337 -0.5938,-0.484 -0.4731,-0.3734 -0.9454,-0.7395 -1.4316,-1.0222 -0.5492,-0.3003 -1.1094,-0.4674 -1.6727,-0.5651 -0.4515,-0.065 -0.9043,-0.066 -1.3568,-0.065 -0.5216,-0.047 -1.0376,0.09 -1.5538,0.2348 -0.7231,0.2027 -1.4421,0.4683 -2.1582,0.7686 -0.8245,0.3094 -1.6376,0.7385 -2.4537,1.1376 -0.8492,0.4046 -1.6929,0.8582 -2.5424,1.2647 -3.3207,1.5034 -6.6843,3.4343 -10.0776,4.0585 -4.3992,0.7266 -8.2173,0.7855 -8.9671,0.8446 l 0.6761,0.9353 v 0 c 0.7397,-0.095 3.6788,0.037 8.938,-0.8911 2.7568,-0.4792 5.1037,-1.6632 7.4584,-2.8029 0.8801,-0.4134 1.7572,-0.8561 2.6379,-1.2574 0.8509,-0.4039 1.6961,-0.8583 2.5472,-1.2596 0.8166,-0.4015 1.6313,-0.8216 2.4568,-1.1268 0.7218,-0.299 1.4469,-0.5417 2.1761,-0.7307 0.5197,-0.1339 1.0393,-0.2459 1.563,-0.1962 0.4497,0.014 0.8991,0 1.3478,0.069 0.5613,0.098 1.1208,0.2676 1.665,0.5944 0.486,0.291 0.9584,0.6654 1.4324,1.0393 0.1683,0.1312 0.2538,0.1937 0.419,0.3413 0.062,0.054 0.239,0.2386 0.181,0.1709 -0.1964,-0.2283 -0.3966,-0.4405 -0.5964,-0.6543 -0.034,-0.036 0.066,0.082 0.098,0.1229 0.2837,0.3067 0.567,0.6133 0.8503,0.9198 l -0.7144,-1.09 z"
         id="path2995"
         style="opacity:1;fill:#ffffff;fill-opacity:1;fill-rule:nonzero;stroke:none;stroke-width:0.34726548;stroke-linecap:round;stroke-linejoin:round;stroke-miterlimit:4;stroke-dasharray:none;stroke-dashoffset:0;stroke-opacity:1;paint-order:fill markers stroke" />
      <path
         style="opacity:1;fill:#ffffff;fill-opacity:1;fill-rule:nonzero;stroke:none;stroke-width:0.34726548;stroke-linecap:round;stroke-linejoin:round;stroke-miterlimit:4;stroke-dasharray:none;stroke-dashoffset:0;stroke-opacity:1;paint-order:fill markers stroke"
         id="path2997"
         d="m -5088.4981,1027.7169 c 0.2081,0.2433 0.4156,0.4903 0.6245,0.7297 0.034,0.037 -0.064,-0.086 -0.098,-0.1243 -0.2753,-0.3236 -0.5511,-0.6473 -0.8284,-0.962 -0.1736,-0.1966 -0.3595,-0.3335 -0.5404,-0.484 -0.4303,-0.3733 -0.8601,-0.7395 -1.3025,-1.0221 -0.4998,-0.3003 -1.0095,-0.4675 -1.5221,-0.5652 -0.4112,-0.065 -0.8231,-0.066 -1.2348,-0.065 -0.4747,-0.047 -0.9445,0.09 -1.4141,0.2348 -0.6577,0.2027 -1.3124,0.4685 -1.9639,0.7688 -0.7504,0.3092 -1.4901,0.7385 -2.2329,1.1375 -0.7727,0.4045 -1.5408,0.8583 -2.3134,1.2646 -3.0219,1.5035 -6.0828,3.4343 -9.1706,4.0585 -4.0034,0.7266 -7.4779,0.7856 -8.1602,0.8448 l 0.6152,0.9351 v 0 c 0.6731,-0.095 3.3479,0.037 8.1336,-0.8911 2.5087,-0.4792 4.6444,-1.6631 6.7874,-2.8029 0.8007,-0.4132 1.5989,-0.856 2.4003,-1.2572 0.7744,-0.4041 1.5437,-0.8583 2.3178,-1.2598 0.7432,-0.4015 1.4847,-0.8216 2.2359,-1.1267 0.6567,-0.299 1.3166,-0.5417 1.9803,-0.7307 0.4728,-0.1339 0.9457,-0.246 1.4223,-0.1962 0.409,0.014 0.8181,0 1.2262,0.069 0.5111,0.098 1.02,0.2675 1.5154,0.5943 0.4422,0.2911 0.8721,0.6654 1.3033,1.0394 0.153,0.1311 0.231,0.1935 0.3815,0.3411 0.055,0.054 0.2176,0.2386 0.1646,0.1709 -0.1787,-0.2283 -0.3608,-0.4404 -0.5429,-0.6541 -0.032,-0.036 0.061,0.082 0.09,0.1229 0.2582,0.3065 0.516,0.6131 0.7737,0.9196 l -0.6501,-1.09 z"
         inkscape:connector-curvature="0"
         sodipodi:nodetypes="ccccccccccccccccccccccccccccccccc" />
      <path
         sodipodi:nodetypes="ccccccccccccccccccccccccccccccccc"
         inkscape:connector-curvature="0"
         d="m -5088.4152,1018.1416 c 0.1815,0.2432 0.3626,0.4902 0.5449,0.7296 0.03,0.037 -0.054,-0.086 -0.084,-0.1243 -0.2403,-0.3236 -0.4812,-0.6472 -0.7231,-0.9619 -0.1514,-0.1967 -0.3139,-0.3337 -0.4717,-0.484 -0.3755,-0.3735 -0.7509,-0.7396 -1.1368,-1.0222 -0.4363,-0.3003 -0.8813,-0.4674 -1.3287,-0.5653 -0.3589,-0.065 -0.7182,-0.066 -1.0776,-0.065 -0.4145,-0.047 -0.8244,0.09 -1.2343,0.235 -0.5742,0.2026 -1.1455,0.4683 -1.7143,0.7686 -0.655,0.3094 -1.3005,0.7385 -1.9488,1.1375 -0.6744,0.4047 -1.3448,0.8583 -2.0192,1.2648 -2.6377,1.5034 -5.3094,3.4343 -8.0046,4.0583 -3.4941,0.7268 -6.5271,0.7858 -7.1225,0.8448 l 0.537,0.9353 v 0 c 0.5876,-0.094 2.9221,0.037 7.0995,-0.8911 2.1894,-0.4792 4.0536,-1.6632 5.924,-2.8029 0.6988,-0.4134 1.3956,-0.8561 2.0952,-1.2573 0.6758,-0.404 1.3472,-0.8584 2.023,-1.2597 0.6486,-0.4015 1.296,-0.8216 1.9515,-1.1268 0.5733,-0.299 1.1494,-0.5417 1.7284,-0.7307 0.4128,-0.1339 0.8255,-0.2459 1.2416,-0.1962 0.357,0.014 0.7141,0 1.0704,0.069 0.446,0.098 0.8901,0.2676 1.3225,0.5944 0.386,0.291 0.7613,0.6654 1.1378,1.0393 0.1325,0.1312 0.2016,0.1937 0.333,0.3413 0.047,0.054 0.1898,0.2386 0.1436,0.1709 -0.1563,-0.2283 -0.3151,-0.4405 -0.4739,-0.6542 -0.029,-0.037 0.052,0.081 0.079,0.1228 0.2254,0.3067 0.4504,0.6133 0.6756,0.9198 l -0.5677,-1.09 z"
         id="path2999"
         style="opacity:1;fill:#ffffff;fill-opacity:1;fill-rule:nonzero;stroke:none;stroke-width:0.34726548;stroke-linecap:round;stroke-linejoin:round;stroke-miterlimit:4;stroke-dasharray:none;stroke-dashoffset:0;stroke-opacity:1;paint-order:fill markers stroke" />
    </g>
  </g>
</svg>
